STARTFONT 2.3
FONT -FontForge-Satisfy-Book-R-Normal--28-280-72-72-P-121-ISO10646-1
SIZE 28 72 72  2
FONTBOUNDINGBOX 32 40 -6 -14
COMMENT "Generated by fontforge, http://fontforge.sourceforge.net"
COMMENT "Copyright (c) 2011 by Font Diner, Inc. All rights reserved."
STARTPROPERTIES 40
FOUNDRY "FontForge"
FAMILY_NAME "Satisfy"
WEIGHT_NAME "Book"
SLANT "R"
SETWIDTH_NAME "Normal"
ADD_STYLE_NAME ""
PIXEL_SIZE 28
POINT_SIZE 280
RESOLUTION_X 72
RESOLUTION_Y 72
SPACING "P"
AVERAGE_WIDTH 121
CHARSET_REGISTRY "ISO10646"
CHARSET_ENCODING "1"
FONTNAME_REGISTRY ""
CHARSET_COLLECTIONS "ISO10646-1"
BITS_PER_PIXEL 2
FONT_NAME "Satisfy-Regular"
FACE_NAME "Satisfy Regular"
COPYRIGHT "Copyright (c) 2011 by Font Diner, Inc. All rights reserved."
FONT_VERSION "1.001"
FONT_ASCENT 22
FONT_DESCENT 6
UNDERLINE_POSITION -3
UNDERLINE_THICKNESS 2
X_HEIGHT 11
CAP_HEIGHT 20
RAW_ASCENT 799
RAW_DESCENT 200
NORM_SPACE 8
RELATIVE_WEIGHT 40
RELATIVE_SETWIDTH 50
SUPERSCRIPT_X 0
SUPERSCRIPT_Y 13
SUPERSCRIPT_SIZE 18
SUBSCRIPT_X 0
SUBSCRIPT_Y 3
SUBSCRIPT_SIZE 18
AVG_LOWERCASE_WIDTH 114
AVG_UPPERCASE_WIDTH 158
ENDPROPERTIES
CHARS 227
STARTCHAR space
ENCODING 32
SWIDTH 280 0
DWIDTH 8 0
BBX 1 1 0 0
BITMAP
00
ENDCHAR
STARTCHAR exclam
ENCODING 33
SWIDTH 249 0
DWIDTH 7 0
BBX 9 22 -1 -1
BITMAP
000640
002F40
002F00
003E00
007D00
007D00
00BC00
00F800
00F400
01F000
02F000
02E000
03D000
07C000
078000
0B8000
0F0000
040000
000000
2F0000
7F0000
240000
ENDCHAR
STARTCHAR quotedbl
ENCODING 34
SWIDTH 249 0
DWIDTH 7 0
BBX 8 9 1 12
BITMAP
0606
1F1E
1E2E
2D3D
3C3C
7C78
78B4
B4F0
A0A0
ENDCHAR
STARTCHAR numbersign
ENCODING 35
SWIDTH 417 0
DWIDTH 12 0
BBX 14 15 -1 3
BITMAP
00060140
000F0B00
001E0E00
002D1D00
06BEBE90
1FFFFFD0
05B47400
00F0B000
01E5E400
3FFFFF40
7BEBE500
07838000
0B478000
0F0B4000
0A0A0000
ENDCHAR
STARTCHAR dollar
ENCODING 36
SWIDTH 292 0
DWIDTH 8 0
BBX 10 22 -1 -1
BITMAP
000100
000340
000700
007FD0
01E0E0
07C0B0
0780B0
0780F0
078180
03D000
02E000
00F000
00B800
003C00
602D00
F01D00
F02D00
B47800
2FE000
0B0000
0E0000
040000
ENDCHAR
STARTCHAR percent
ENCODING 37
SWIDTH 574 0
DWIDTH 16 0
BBX 16 22 0 -1
BITMAP
00100006
02FD001E
0B9B007C
0F0740F4
2D0742D0
2C0B4780
3C0F0F00
2C1E2D00
2D7C7800
1FF4F000
0142D000
00078140
000F0FE0
002D3D78
0078B43C
01F0F03C
02D1E038
0B81D078
1F01D0B0
3D00E6E0
BC00BF80
50001500
ENDCHAR
STARTCHAR ampersand
ENCODING 38
SWIDTH 460 0
DWIDTH 13 0
BBX 14 23 -2 -2
BITMAP
00000A80
00007AD0
0001E0D0
0002C1D0
0003C780
00079F00
0007FD00
000BF400
000BD000
001F8000
007F8000
01FFC000
03E7C000
0FC7D000
2F47D000
3E03E000
7D03E060
7C02F2C0
7D01FE00
3F56FC00
1FFFFD00
06A47E00
00001400
ENDCHAR
STARTCHAR quotesingle
ENCODING 39
SWIDTH 113 0
DWIDTH 3 0
BBX 4 9 1 12
BITMAP
06
1F
1E
2D
3C
7C
78
B4
A0
ENDCHAR
STARTCHAR parenleft
ENCODING 40
SWIDTH 234 0
DWIDTH 7 0
BBX 9 26 0 -3
BITMAP
000180
000780
001E00
003C00
007800
00F000
01E000
03C000
078000
0B4000
0F0000
1F0000
1E0000
2D0000
3D0000
3C0000
7C0000
780000
780000
780000
780000
780000
380000
3C0000
2C0000
080000
ENDCHAR
STARTCHAR parenright
ENCODING 41
SWIDTH 204 0
DWIDTH 6 0
BBX 9 26 -3 -3
BITMAP
000800
000D00
000F00
000B00
000B40
000B40
000B40
000B40
000B40
000F40
000F00
001F00
001E00
002D00
003D00
003C00
007800
00B400
00F000
02D000
03C000
078000
0F0000
2D0000
B40000
900000
ENDCHAR
STARTCHAR asterisk
ENCODING 42
SWIDTH 327 0
DWIDTH 9 0
BBX 10 10 1 11
BITMAP
001000
007D00
147800
7D7450
7FBBE0
02FA90
07B400
2F6D00
2E2F40
080D00
ENDCHAR
STARTCHAR plus
ENCODING 43
SWIDTH 350 0
DWIDTH 10 0
BBX 10 10 0 5
BITMAP
002800
007800
00B400
01F500
BFFFE0
FFFA90
02D000
02D000
03C000
024000
ENDCHAR
STARTCHAR comma
ENCODING 44
SWIDTH 200 0
DWIDTH 6 0
BBX 4 6 -1 -4
BITMAP
7D
BD
7D
28
70
40
ENDCHAR
STARTCHAR hyphen
ENCODING 45
SWIDTH 353 0
DWIDTH 10 0
BBX 11 3 -1 7
BITMAP
1AAAA4
7FFFF4
654000
ENDCHAR
STARTCHAR period
ENCODING 46
SWIDTH 213 0
DWIDTH 6 0
BBX 4 3 -1 -1
BITMAP
6E
BE
64
ENDCHAR
STARTCHAR slash
ENCODING 47
SWIDTH 262 0
DWIDTH 7 0
BBX 14 22 -3 -1
BITMAP
00000050
000002D0
00000780
00000F00
00002D00
00003C00
0000B400
0001E000
0002C000
00078000
000F0000
001D0000
003C0000
00B40000
01F00000
02D00000
07C00000
0B400000
1F000000
3D000000
7C000000
50000000
ENDCHAR
STARTCHAR zero
ENCODING 48
SWIDTH 489 0
DWIDTH 14 0
BBX 12 22 1 -1
BITMAP
000680
002FF0
00B9B8
02F03C
07D02D
0B802D
1F402E
2E002E
3D002E
7C002D
BC003D
F8003C
F8007C
F400B8
F400F4
F401F0
F403E0
B407C0
B80F40
3D7E00
2FF400
064000
ENDCHAR
STARTCHAR one
ENCODING 49
SWIDTH 272 0
DWIDTH 8 0
BBX 7 22 0 -1
BITMAP
0010
007C
02FC
03F8
00F8
00F4
01F0
01E0
02E0
02D0
03C0
0780
0780
0B40
0F00
1E00
2E00
3D00
7D00
7D00
BD00
1400
ENDCHAR
STARTCHAR two
ENCODING 50
SWIDTH 448 0
DWIDTH 13 0
BBX 13 22 -1 -1
BITMAP
00006900
000BAF40
003D0BC0
00F407C0
01F007C0
02F00BC0
01E00F80
00001F40
00002E00
00007D00
0000F400
0002E000
000B8000
002E0000
00B80000
02E00000
0F800000
2E000000
7C6A9000
BFFFF800
7FABF400
14001000
ENDCHAR
STARTCHAR three
ENCODING 51
SWIDTH 462 0
DWIDTH 13 0
BBX 13 22 0 -1
BITMAP
00069000
00BFFD00
02F41F00
07D00F40
0BC00F40
0B801F40
0BD02F00
01007D00
0000F800
0007E000
002F4000
00FF9000
0055F400
0000B800
00007800
0000B800
1400F400
F801F000
F803D000
BE1F8000
3FFE0000
06A40000
ENDCHAR
STARTCHAR four
ENCODING 52
SWIDTH 452 0
DWIDTH 13 0
BBX 12 22 0 -1
BITMAP
000005
0000BF
0002FE
0007ED
000F6C
003D3C
00B838
02E074
0BC0B4
2F00F0
BD01E0
FEAFFC
BFFFFC
2403D8
0007C0
000BC0
000B80
000F80
001F80
001F80
001F40
000900
ENDCHAR
STARTCHAR five
ENCODING 53
SWIDTH 444 0
DWIDTH 12 0
BBX 13 22 0 -1
BITMAP
00005500
006FFFC0
00FFFFC0
00E01B80
01D00100
02C00000
03800000
07400000
0B068000
0F7FF000
1FFAF400
1F80B800
0A007800
00007400
0000B400
0400F000
3801D000
B803C000
FD1B4000
BFFE0000
3FF40000
0A800000
ENDCHAR
STARTCHAR six
ENCODING 54
SWIDTH 477 0
DWIDTH 13 0
BBX 11 22 1 -1
BITMAP
000190
001FF8
007D3C
00F43C
02E07C
07C0A4
0B4000
1F0000
2E2FD0
3EF5F0
7FD0B4
BF80B4
FF40B8
F900B4
F800F4
F401F0
F402E0
B803D0
7C0B80
3D2E00
1FF800
069000
ENDCHAR
STARTCHAR seven
ENCODING 55
SWIDTH 406 0
DWIDTH 11 0
BBX 12 22 1 -1
BITMAP
005554
1FFFFD
2FFAAD
2D002D
100078
0001F0
0003D0
000B80
001F00
003D00
007C00
00F400
02F000
03D000
0BC000
0F8000
1F4000
3E0000
7E0000
7D0000
BD0000
140000
ENDCHAR
STARTCHAR eight
ENCODING 56
SWIDTH 444 0
DWIDTH 12 0
BBX 14 22 -1 -1
BITMAP
00006900
0007EB40
001E01C0
003C01D0
007C02C0
00B80780
00BC0F40
007D7D00
007EF800
002FD000
002FC000
00BBE000
02E2F000
0B81F400
1F00F800
3D00B800
3C00B800
7C00F800
7C01F000
3D07D000
1FAF4000
01A40000
ENDCHAR
STARTCHAR nine
ENCODING 57
SWIDTH 462 0
DWIDTH 13 0
BBX 12 22 0 -1
BITMAP
000190
001FB8
007C1D
01F00E
03D00F
07C00B
0B400F
0F402F
1F003F
1F007F
1F00FE
0F01ED
0F87AD
07FE3C
01A4B8
0000F0
1002E0
3407C0
781F40
7FFD00
2FF400
064000
ENDCHAR
STARTCHAR colon
ENCODING 58
SWIDTH 226 0
DWIDTH 6 0
BBX 6 9 -1 -1
BITMAP
0680
1FD0
0A40
0000
0000
0000
6E00
BE00
6400
ENDCHAR
STARTCHAR semicolon
ENCODING 59
SWIDTH 212 0
DWIDTH 6 0
BBX 5 12 -1 -4
BITMAP
0A80
2FC0
1E40
0000
0000
0000
7D00
BD00
7D00
2800
7000
4000
ENDCHAR
STARTCHAR less
ENCODING 60
SWIDTH 271 0
DWIDTH 8 0
BBX 8 12 0 3
BITMAP
0005
007E
01F4
0BD0
2F40
FD00
F400
7C00
3E00
1F40
0B80
0290
ENDCHAR
STARTCHAR equal
ENCODING 61
SWIDTH 374 0
DWIDTH 10 0
BBX 11 7 0 6
BITMAP
015550
2FFFF4
3AAA90
000000
6FFFC0
FFFF80
500000
ENDCHAR
STARTCHAR greater
ENCODING 62
SWIDTH 250 0
DWIDTH 7 0
BBX 9 12 -2 3
BITMAP
015000
01F400
00B800
007D00
002F00
000F40
001F80
007E00
01F800
07D000
2F4000
680000
ENDCHAR
STARTCHAR question
ENCODING 63
SWIDTH 413 0
DWIDTH 12 0
BBX 14 22 -1 -1
BITMAP
0006A900
007FFF80
02F807E0
07E002F0
07D001F0
03D002E0
000003D0
00000BC0
00001F40
00007D00
0006F400
01FF8000
02F40000
03D00000
07D00000
07C00000
0B800000
09000000
00000000
2F400000
7F400000
29000000
ENDCHAR
STARTCHAR at
ENCODING 64
SWIDTH 648 0
DWIDTH 18 0
BBX 19 19 -1 -1
BITMAP
0001AFE400
001BE56E00
007D000780
01F00501D0
07C07FD4B0
0F41E6FC74
2E0783F878
3C0E06F438
782D00E038
B47801D078
B4B402C074
B4B40780F0
B4B41F01E0
787EFE03D0
3D1B9E0B40
1F001E6E00
07D00FF400
00BE014000
0005000000
ENDCHAR
STARTCHAR A
ENCODING 65
SWIDTH 552 0
DWIDTH 15 0
BBX 17 28 -3 -7
BITMAP
0000001900
000001FF80
000007D3C0
00000F43C0
00002D0380
0000780780
0000F40B40
0002E00B40
0003D00F00
0007C01F00
000B801E00
000F402E00
001F003D00
002E003D00
003E557C00
01BFFFFF80
2FFEABFF00
25F800B800
02F400F800
03F000F400
07E001F400
0BD001F400
0FD001F400
1F8002F400
3F4002F400
B90001F800
000001F800
0000004000
ENDCHAR
STARTCHAR B
ENCODING 66
SWIDTH 607 0
DWIDTH 17 0
BBX 17 27 0 -6
BITMAP
0007A94000
002FFFF400
02FF40BD00
07FF003F00
07AE002F40
003D002F40
007C003F00
00B8007E00
00B400BD00
00F401F800
01F003E000
02E00F8000
03EBFE0000
07FFEF4000
0BDA47D000
0B8002F000
0F4001F400
1F4001F800
2F0001F800
3E0002F400
7E0003F000
7D000BE000
BC002FC000
FC00BE0000
FD5BF80000
6FFE400000
0040000000
ENDCHAR
STARTCHAR C
ENCODING 67
SWIDTH 548 0
DWIDTH 15 0
BBX 16 26 0 -5
BITMAP
00001A80
0001FEF4
000BD07C
002F403D
00BD003D
01F8007D
02F000BD
07E000FC
0BC003F8
1F8002F0
2F400040
3F000000
7E000000
7E000000
BD000000
BD000000
FC000000
FC000000
FC000000
FC000000
BC000240
7D000700
3E001D00
2F81B800
0BFFE000
01FE4000
ENDCHAR
STARTCHAR D
ENCODING 68
SWIDTH 632 0
DWIDTH 18 0
BBX 17 26 0 -5
BITMAP
0005940000
00BFFF4000
02FEABE000
03D001F800
0104007D00
006D003E00
00BD001F40
00BC001F40
00FC000F80
00F8000F80
01F4001F80
01F4001F80
02F0001F80
02E0002F40
03E0003F00
07D0007E00
07C000BD00
0B8000FC00
0F4002F400
1F0003E000
2F000BC000
3E002F4000
7D00BD0000
BC06F40000
BFBF800000
1FF9000000
ENDCHAR
STARTCHAR E
ENCODING 69
SWIDTH 523 0
DWIDTH 15 0
BBX 16 26 -1 -5
BITMAP
00001690
0001BEBC
000BE01E
002F401F
00BD001F
01F8002E
02F4007D
02F401FC
03F001B4
02F40000
01F80000
00BC0000
002F6400
002FFC00
02F56400
0BC00000
2F000000
7E000000
BD000010
BC000060
BD0000D0
BD000280
7F000B40
3F907D00
0FFFF400
01FF8000
ENDCHAR
STARTCHAR F
ENCODING 70
SWIDTH 585 0
DWIDTH 16 0
BBX 15 26 1 -5
BITMAP
00056940
01BFFFF4
1FE501BC
7E00007C
BD00007C
BE5000B4
7FD000F0
1B8002E0
000003C0
00000B80
00000F00
015AAF50
0FFFFFF0
1E95BD40
0000F400
0002F000
0003E000
0007D000
000FC000
001F8000
002F4000
003F0000
007E0000
007E0000
00BE0000
00B90000
ENDCHAR
STARTCHAR G
ENCODING 71
SWIDTH 612 0
DWIDTH 17 0
BBX 16 27 0 -6
BITMAP
00000690
0000BFF8
0002E43C
000B802D
002F002E
007D003E
00F8007D
02F400BD
03F002FC
0BE001F4
0FC00050
1F800000
2F800000
3F400000
3F01ABFF
7E03FFFE
7E0000F4
BD0001F0
BD0002E0
BD0003D0
7D000780
3D000F40
2E002D00
1F00B800
0BD6E000
02FF4000
00140000
ENDCHAR
STARTCHAR H
ENCODING 72
SWIDTH 649 0
DWIDTH 18 0
BBX 20 26 -1 -5
BITMAP
0000400000
0007D0007D
000BC000FC
000F8001F8
001F4001F4
002F0002F0
002E0003E0
003E0007D0
007D0007C0
007C000B80
00B8000F40
00F4001F00
01F9AAFFA0
06FFFFFFF0
0BE6E03ED0
03E0787C00
03D01D7800
07C00BB400
0BC007F400
0B8003F000
0F8003E000
1F4003E000
2F4003D000
2F0003D000
3F0007D000
7E00068000
ENDCHAR
STARTCHAR I
ENCODING 73
SWIDTH 537 0
DWIDTH 15 0
BBX 17 26 -2 -5
BITMAP
0000005400
000002FD00
00001F9E00
00003E1E00
0000BD2E00
0000F82E00
0001F43D00
0001F43D00
0001F07C00
0001F0BC00
0001F0F800
0000F0F400
0000B1F400
000072F000
000003E000
0005ABFE40
01BFFFD500
1FF90B8000
7F400F4000
BD001F0000
F8002D0000
FC003C0000
BD00B40000
3F01E00000
1FE7C00000
02FE000000
ENDCHAR
STARTCHAR J
ENCODING 74
SWIDTH 500 0
DWIDTH 14 0
BBX 20 27 -3 -6
BITMAP
0000015550
00003FFFFD
00003EAFA9
0000001F00
0000002F00
0000003E00
0000003D00
0000007D00
000000BC00
000000F800
000001F800
000001F400
000002F000
001803E000
00BE07E000
02FE07D000
07E40BC000
0F800F8000
2F001F4000
3D002F0000
3C003E0000
7C007D0000
7C00F80000
3C02E00000
1E07C00000
0BFE000000
0050000000
ENDCHAR
STARTCHAR K
ENCODING 75
SWIDTH 497 0
DWIDTH 14 0
BBX 17 29 -2 -8
BITMAP
0000500140
0007D00BC0
000BC00BC0
000F800F80
001F401F80
001F002F40
002E003E00
003D00BD00
007C01F400
00B803E000
00F80F8000
00F43E0000
01F1F80000
02FB900000
07FFA90000
07EABF4000
07D01F8000
07C00F8000
0B800F8000
0F801F4000
0F402F0000
1F403E0000
2F007D0000
3F00BC0000
3F00B80000
7900B80000
00007D0000
00001FED00
000002A400
ENDCHAR
STARTCHAR L
ENCODING 76
SWIDTH 492 0
DWIDTH 14 0
BBX 18 27 -3 -6
BITMAP
0000000640
0000002FE0
000000BFF0
000002F5F0
000003E1E0
000007C3D0
00000BCB80
00000FAF00
00000FFD00
00406FE000
00FFFF4000
001ABE0000
00003D0000
00007C0000
0000BC0000
0000B80000
0000F40000
0001F00000
0002E00000
0003C00000
000B800000
1BFF000000
7FFF400000
B8BFE40A00
BFD2FFFD00
19006FF800
0000019000
ENDCHAR
STARTCHAR M
ENCODING 77
SWIDTH 733 0
DWIDTH 21 0
BBX 24 26 -3 -5
BITMAP
000000400014
00000BC000BD
00001FD002FC
00002FD007FC
00003FD00BBC
00007AD00F78
0000B6D02EB4
0000F2D03CB4
0001F3D0B8F0
0002E3C0F1E0
0003D3C1E2E0
0007C7C3D2D0
000BC7C783C0
000B878B47C0
070F478F0B80
0E1F47AD0B80
2C1F07BC0F40
382E07F81F00
743E07F41F00
B43D07F02E00
B07C03F03E00
B0B802E03E00
B4F800007E00
BAF400007F00
7FE000003F40
1FC000001FD0
ENDCHAR
STARTCHAR N
ENCODING 78
SWIDTH 541 0
DWIDTH 15 0
BBX 19 26 -1 -5
BITMAP
0000000190
002E000BF4
007E001FB8
00BE003E28
00FF007C38
00FF00B874
01EF00B9E0
02DF00FBC0
02CB0AFE00
03CB02F400
078B02E000
0B8B02E000
0B4B42D000
0F0743D000
1F0743C000
2E0747C000
2E074B8000
3D078B8000
7D078F4000
7C038F0000
BC03DF0000
FC03FE0000
FC02FD0000
FC01FC0000
FC00FC0000
B800A40000
ENDCHAR
STARTCHAR O
ENCODING 79
SWIDTH 567 0
DWIDTH 16 0
BBX 15 27 0 -6
BITMAP
0001B500
0007FFC0
001FE3D0
007D41E0
00F801F0
01F000F4
03E000F4
07C000F4
0B8000F4
1F4000F4
2F0000F4
2E0000F4
3E0001F4
7D0001F0
7D0002F0
BC0003E0
BC0003D0
BC0007C0
BC000B80
BC000F40
BC002F00
7C003D00
7D00B800
2E02F000
1F5BC000
07FE0000
00500000
ENDCHAR
STARTCHAR P
ENCODING 80
SWIDTH 552 0
DWIDTH 15 0
BBX 17 26 -1 -5
BITMAP
00006A9000
001BFBFD00
01BF407F00
07FF401F40
078F000F80
021E000BC0
002D000FC0
002D000F80
003C001F40
0078002F00
00B8007E00
00F400F800
00F003F000
01F01F8000
02E1BE0000
03FFE00000
07E4000000
07C0000000
0BC0000000
0F80000000
1F40000000
2F40000000
3F00000000
7E00000000
FD00000000
A400000000
ENDCHAR
STARTCHAR Q
ENCODING 81
SWIDTH 583 0
DWIDTH 16 0
BBX 16 27 0 -6
BITMAP
00006900
0007FFD0
001F81F0
007E00B4
00F80078
02F0003C
07E0003D
0BC0003D
0F80003D
1F40007D
2F00007C
3E0000BC
3E0000B8
7D0000F4
7D0001F0
3D0002F0
3E0007E0
1F400BC0
0BE00F80
01402F00
01A57D00
0BFFF800
2F47F400
3E1BFD00
2FBE1F80
1FF402F8
00000010
ENDCHAR
STARTCHAR R
ENCODING 82
SWIDTH 560 0
DWIDTH 16 0
BBX 17 28 -1 -7
BITMAP
00006A9000
001BFAFD00
00BF402F00
03FB400F80
03CF000BC0
020F000BC0
001E000BC0
002D000BC0
003D000F80
003C001F40
0078003E00
00B800BC00
00F402F400
07FE1BD000
0BF7FE0000
07FFF40000
03E5B40000
03D0780000
07D03C0000
0BC03D0000
0FC03D0000
0F802E0000
1F402E0000
3F002E0000
BE002F0000
68001F9400
00000FF400
0000069000
ENDCHAR
STARTCHAR S
ENCODING 83
SWIDTH 474 0
DWIDTH 13 0
BBX 16 27 -2 -6
BITMAP
00006A90
0002FEB8
000FD03D
002F402E
007D002E
00B8002E
00F8003E
00F800BC
00BC0050
007E0000
003F4000
001FD000
0007F400
0002FC00
0000BD00
00007E00
00002F00
00001F00
00001F00
1F001E00
3E001E00
7E002D00
3F007800
2F40F400
1FEBD000
07FF4000
00540000
ENDCHAR
STARTCHAR T
ENCODING 84
SWIDTH 423 0
DWIDTH 12 0
BBX 14 26 1 -5
BITMAP
00155400
6FFFFFF0
FFFFEAA0
E51F4000
001F0000
002E0000
003E0000
007D0000
007C0000
00B80000
00F40000
00F40000
01F00000
02E00000
03D00000
03D00000
07C00000
0BC00000
0B800000
0F800000
1F400000
2F400000
2F000000
3F000000
7E000000
7D000000
ENDCHAR
STARTCHAR U
ENCODING 85
SWIDTH 574 0
DWIDTH 16 0
BBX 17 26 0 -5
BITMAP
0000000140
002F000FC0
00BE001F80
00FC002F40
01F8003F00
02F4007E00
03F0007D00
03E000BC00
07D000F800
0BC001F400
0F8001F000
0F8002F000
1F4003E000
2F0003D000
2E0007C000
3D000BC000
7D000F8000
7C000F8000
7C002F4000
BC003F4000
B8007F0000
BC00FF0000
BC02EF0000
7E079F0000
3FFE0F4000
1BF4064000
ENDCHAR
STARTCHAR V
ENCODING 86
SWIDTH 503 0
DWIDTH 14 0
BBX 15 27 1 -6
BITMAP
00000050
0BD000F4
0F8001F8
1F4003F0
2F0007D0
2E000BC0
3E000F80
3D001F40
7C002F00
7C003E00
B8007D00
B800BC00
B800F800
B801F400
B802F000
B803D000
B807C000
B80B8000
780F4000
781F0000
782E0000
3C3C0000
2C780000
1EF00000
0FE00000
0BC00000
01000000
ENDCHAR
STARTCHAR W
ENCODING 87
SWIDTH 817 0
DWIDTH 23 0
BBX 23 27 0 -6
BITMAP
0005000000A0
007E000002F4
00BC007402F4
00F801F401F4
01F002F001F4
02E003F001F4
03D007E001F0
07C00BD002F0
0B800BD002F0
0F400BC002E0
1F000B8003D0
1F000B4003D0
2E000F4007C0
3D001F000B80
3D002F000F40
3C003F000F00
7C007E001E00
7800BE002D00
7800FE003C00
7802DE00B800
7C03CF00F000
3C0B4F01E000
3D1F0B43C000
2E7D0B9B4000
1FF807FE0000
07E002F80000
000000400000
ENDCHAR
STARTCHAR X
ENCODING 88
SWIDTH 579 0
DWIDTH 16 0
BBX 20 26 -1 -5
BITMAP
0068000014
02FF0000BE
074F4002F9
0B0B8007E0
0F07C01F80
0F43C03F00
0BD7D0BD00
07FFD1F400
01F5E3E000
0001EBC000
0001FF4000
0000FE0000
0000FC0000
0001F40000
0002F40000
000BF40000
001FF40000
002EB40000
007C780000
01F4780000
02F03C0000
07D03D0000
1F802E0050
3F001F02C0
FD000FEF40
640007F800
ENDCHAR
STARTCHAR Y
ENCODING 89
SWIDTH 532 0
DWIDTH 15 0
BBX 16 26 0 -5
BITMAP
00140005
00FC003E
01F8007D
02F400BD
03F000BC
07E000F8
07D001F4
0BC001F0
0F8002E0
1F4003E0
1F0007D0
2E000BC0
2E000F80
3D002F80
3D007F40
3D00FB00
3F47DE00
1FFE5E00
06E42D00
00003C00
00007800
0000F000
2802E000
BF5FC000
BFFE0000
2FE40000
ENDCHAR
STARTCHAR Z
ENCODING 90
SWIDTH 455 0
DWIDTH 13 0
BBX 17 26 -3 -5
BITMAP
0000555400
000FFFFF80
002FFFAF80
0029400B80
0000000F80
0000002F00
0000007E00
000000FC00
000002F400
000007E000
00001F8000
00003F0000
0000BC0000
0002F40000
0007D00000
001F800000
003E000000
00BC000000
01F4000000
03D0000000
0B80000000
1F00000000
2E05550000
7EFFFFD000
3FFFFF8000
2A555A0000
ENDCHAR
STARTCHAR bracketleft
ENCODING 91
SWIDTH 202 0
DWIDTH 6 0
BBX 11 27 -2 -3
BITMAP
000050
0007F4
000BE0
000F40
001E00
002D00
002C00
003800
007800
00B400
00F000
00E000
01E000
02D000
03C000
038000
078000
0B4000
0B0000
0F0000
1E0000
1D0000
2D0000
3C0000
3C0000
7E4000
3F8000
ENDCHAR
STARTCHAR backslash
ENCODING 92
SWIDTH 273 0
DWIDTH 8 0
BBX 6 22 1 -1
BITMAP
6000
F400
B400
B800
7800
7800
3C00
3C00
3C00
2D00
2D00
1E00
1E00
0F00
0F00
0B40
0B40
0780
07C0
07C0
03D0
0140
ENDCHAR
STARTCHAR bracketright
ENCODING 93
SWIDTH 216 0
DWIDTH 6 0
BBX 10 27 -3 -3
BITMAP
000040
000FE0
0007F0
0001E0
0001D0
0002D0
0002C0
0003C0
000780
000740
000B40
000F00
000E00
001D00
002D00
003C00
003800
007800
00B400
00F000
01E000
01D000
02C000
03C000
0B8000
7F4000
BE0000
ENDCHAR
STARTCHAR asciicircum
ENCODING 94
SWIDTH 287 0
DWIDTH 8 0
BBX 10 11 -1 10
BITMAP
000100
001F80
003FC0
00BBC0
00F2C0
02D2D0
0782D0
0F42D0
1E02E0
3C01E0
6401E0
ENDCHAR
STARTCHAR underscore
ENCODING 95
SWIDTH 439 0
DWIDTH 12 0
BBX 14 3 -3 -1
BITMAP
BFFFFFA0
FFFFFFF0
54000040
ENDCHAR
STARTCHAR grave
ENCODING 96
SWIDTH 567 0
DWIDTH 16 0
BBX 5 4 7 15
BITMAP
B800
7E00
0BC0
0040
ENDCHAR
STARTCHAR a
ENCODING 97
SWIDTH 435 0
DWIDTH 12 0
BBX 16 13 -1 -1
BITMAP
00050000
007FC000
01F7C000
03C2F000
0B41E000
1F01E005
2D02D01C
3D03C034
7C07C0A0
7C1F8280
7FF6DB00
3FD1FC00
05005000
ENDCHAR
STARTCHAR b
ENCODING 98
SWIDTH 415 0
DWIDTH 12 0
BBX 15 21 0 -1
BITMAP
00280000
00B80000
01F80000
02F40000
03F40000
07F00000
0BE00000
0FD00000
1FC00000
2F800000
3F4B8000
3E0FC5B4
7D0BFE40
7803D000
B4078000
B40B4000
B40F0000
742D0000
79B80000
2FD00000
05000000
ENDCHAR
STARTCHAR c
ENCODING 99
SWIDTH 363 0
DWIDTH 10 0
BBX 14 13 -1 -1
BITMAP
00150000
01FF8000
07E3C000
0F8B8000
1F0B4000
2D000050
3C0001C0
7C000740
7C001D00
3C007400
2E42D000
0FFE4000
01A40000
ENDCHAR
STARTCHAR d
ENCODING 100
SWIDTH 483 0
DWIDTH 14 0
BBX 17 21 -1 -1
BITMAP
0000005000
000001F000
000002F000
000003F000
000007F000
00000BE000
00000FE000
00000FD000
00001FC000
007F2F4000
02E2BF0000
0B81FE0000
0F01FC0000
2D00B40080
3C00B00240
3801E00A00
7803D02800
781FD0A000
3EB9E68000
1FD0FE0000
0100640000
ENDCHAR
STARTCHAR e
ENCODING 101
SWIDTH 372 0
DWIDTH 10 0
BBX 13 13 0 -1
BITMAP
00140000
01FF0000
0B9F0000
1E1E0000
3C2D0000
B8B40040
FBD00340
FE000D00
F4003800
F401E000
BD1B8000
3FF90000
06900000
ENDCHAR
STARTCHAR f
ENCODING 102
SWIDTH 325 0
DWIDTH 9 0
BBX 15 33 -3 -13
BITMAP
00015000
0007E000
0003E000
0003E000
0003D000
0007D000
0007C000
000B8000
000F4000
000F0000
001E0000
002D0054
003DAFE4
007F9400
02F90000
03F00000
03E00000
02F80000
02EE0000
03CB4000
0783C000
0B42D000
0B01E000
0F01E000
1E01E000
2D02E000
2D03D000
3C078000
780F4000
783E0000
BEFC0000
BFE00000
3F800000
ENDCHAR
STARTCHAR g
ENCODING 103
SWIDTH 459 0
DWIDTH 13 0
BBX 16 26 -1 -14
BITMAP
00040000
00BF0900
02E7AD00
0B81FC00
0F01F800
1E00B801
2D00B40A
3C00F02C
3C01F0B0
3D07E2C0
2FAEEE00
1FF6F800
0147D000
002F8000
00BB8000
02DB4000
0F4F0000
2D1F0000
7C1E0000
782D0000
783C0000
787C0000
38B80000
2FF00000
0FE00000
02800000
ENDCHAR
STARTCHAR h
ENCODING 104
SWIDTH 465 0
DWIDTH 13 0
BBX 16 21 -1 -1
BITMAP
00040000
007D0000
007D0000
00BC0000
00B80000
00F80000
01F40000
01F00000
02E00000
03D2F400
03CFF800
07A9BC00
0BE0B800
0B80B800
0F00F406
1E01E01D
2E02D074
2D03C1D0
3D03EF40
7C02F800
14005000
ENDCHAR
STARTCHAR i
ENCODING 105
SWIDTH 274 0
DWIDTH 8 0
BBX 10 19 0 -1
BITMAP
00A000
01F000
01E000
000000
000000
000000
000000
064000
1F4000
2F0000
2E0000
3D0020
7C00D0
780280
740A00
742C00
79F000
2F8000
050000
ENDCHAR
STARTCHAR j
ENCODING 106
SWIDTH 267 0
DWIDTH 8 0
BBX 16 32 -6 -13
BITMAP
00000100
00000B40
00000F40
00000E00
00000000
00000000
00000000
00000000
00006400
0000F800
0001F400
0001F000
0002E006
0003D00D
0007C038
000B81E0
000B8780
000F6D00
000FF400
001F8000
007E0000
01FD0000
07BD0000
0F7C0000
2D780000
78B40000
B4F00000
F1F00000
B2E00000
77C00000
2F800000
05000000
ENDCHAR
STARTCHAR k
ENCODING 107
SWIDTH 440 0
DWIDTH 12 0
BBX 15 21 -1 -1
BITMAP
00140000
00BD0000
00BC0000
00BC0000
00F80000
00F40000
01F00000
01E00000
02D00000
03C2F400
079FF800
07B8B400
0BD0B000
0F42D004
0E7F401C
1D7B8034
2C0380A0
3C0742C0
780B9B00
740BFC00
50029000
ENDCHAR
STARTCHAR l
ENCODING 108
SWIDTH 218 0
DWIDTH 6 0
BBX 8 21 -1 -1
BITMAP
0004
00BD
00BD
00BC
00F8
00F4
01F4
02F0
02E0
03D0
07C0
07C0
0B80
0F40
1F00
1F00
2E00
3D00
3C00
7C00
1400
ENDCHAR
STARTCHAR m
ENCODING 109
SWIDTH 717 0
DWIDTH 20 0
BBX 23 12 0 -1
BITMAP
010290190000
0F5FF0FF4000
1F7AF7EF4000
1FD0FE0F4000
2F81F81F4024
3F01F41F0060
7E02E02E01D0
7C03D03E0380
B807C03D0A00
F80B807D7800
F40B403FE000
5005001A4000
ENDCHAR
STARTCHAR n
ENCODING 110
SWIDTH 461 0
DWIDTH 13 0
BBX 16 12 -1 -1
BITMAP
0142E000
07DFF800
07F9F800
0BE0B800
0FC0F402
0F40F40A
1E01F01C
2E02E074
3D03D1E0
3C03D780
7802FE00
5000A400
ENDCHAR
STARTCHAR o
ENCODING 111
SWIDTH 393 0
DWIDTH 11 0
BBX 14 12 0 -1
BITMAP
06F80000
0F9E0000
2E0B0060
7D0B42C0
BE0B5E00
FB9BF400
E2FF4000
E06E0000
E02D0000
B4B80000
7FE00000
16400000
ENDCHAR
STARTCHAR p
ENCODING 112
SWIDTH 451 0
DWIDTH 13 0
BBX 18 23 -3 -12
BITMAP
00281A0000
007DBF8000
007F978000
007E03C000
00BC078010
00F40B8090
01E00F0280
01E02E0B00
02FE7C2C00
03FFF9F400
03FFFF8000
079A550000
0B40000000
0F40000000
0F00000000
1E00000000
2E00000000
3D00000000
3D00000000
7C00000000
BC00000000
F800000000
6400000000
ENDCHAR
STARTCHAR q
ENCODING 113
SWIDTH 462 0
DWIDTH 13 0
BBX 14 24 0 -13
BITMAP
01B82800
079AB800
1F07F400
3D07F000
7C02E000
F802E000
F403D000
F407C030
F40B8090
F82F8280
7EEB4A00
1A8F2C00
000EB000
001FD000
002F0000
003D0000
007C0000
00F80000
01F80000
02F80000
02F80000
01F80000
00F80000
00240000
ENDCHAR
STARTCHAR r
ENCODING 114
SWIDTH 406 0
DWIDTH 11 0
BBX 16 14 -2 -1
BITMAP
00280000
00BD0000
01FD0000
01FD5000
00FFF000
02D5F400
0380F405
0B41E00D
0E03D028
2C0B80A0
340F02C0
A01F0B00
D00FFC00
4006E000
ENDCHAR
STARTCHAR s
ENCODING 115
SWIDTH 351 0
DWIDTH 10 0
BBX 8 14 0 -1
BITMAP
0010
01F4
07F0
0BE0
0BE0
0DF0
28B4
607C
403D
042E
2C1E
7E2C
2FF4
0B80
ENDCHAR
STARTCHAR t
ENCODING 116
SWIDTH 301 0
DWIDTH 8 0
BBX 14 21 -2 -1
BITMAP
00014000
000B8000
000F8000
001F8000
106FE940
BFFFFFE0
1ABF0150
007E0000
00BD0000
00FC0000
00F80000
01F40000
01F00000
02D00180
02C00340
03800A00
03402800
0380B000
03D7C000
01FE0000
00640000
ENDCHAR
STARTCHAR u
ENCODING 117
SWIDTH 468 0
DWIDTH 13 0
BBX 16 12 0 -1
BITMAP
05006000
1F01F000
3E02F000
7D03E000
7C07D009
B80BC01C
F40B8034
F40B40D0
F41F4280
B97BDE00
7FE2F800
05404000
ENDCHAR
STARTCHAR v
ENCODING 118
SWIDTH 427 0
DWIDTH 12 0
BBX 15 12 0 -1
BITMAP
1900B400
7D01F400
7C03F000
B807E018
B807C1A0
B40BFE40
B40E5000
B82C0000
78B40000
3ED00000
2F800000
09000000
ENDCHAR
STARTCHAR w
ENCODING 119
SWIDTH 646 0
DWIDTH 18 0
BBX 21 12 0 -1
BITMAP
0A01E0190000
2E03E03E0000
3D07D07D0000
7D07C0BC0180
7C07807C1A00
B80740BFF400
B40A00F54000
B40E01E00000
B42F03D00000
78B38B400000
3FC1FE000000
190054000000
ENDCHAR
STARTCHAR x
ENCODING 120
SWIDTH 399 0
DWIDTH 11 0
BBX 14 13 -2 -1
BITMAP
00400000
03D01F00
02E07E00
01F1F800
00BBE000
007F8000
007E0000
00BD0010
02FE0060
07DF02C0
1F0BAF00
7C07F800
24019000
ENDCHAR
STARTCHAR y
ENCODING 121
SWIDTH 406 0
DWIDTH 11 0
BBX 11 23 -1 -12
BITMAP
064068
0F80BC
0F40BC
1F00B8
2E00F4
3D01F0
3C03E0
7C0BD0
7C1FC0
7D7BC0
3FF780
0A8740
000B40
000F00
001E00
002E00
002D00
003D00
007C00
00B800
00F800
00F400
006000
ENDCHAR
STARTCHAR z
ENCODING 122
SWIDTH 448 0
DWIDTH 13 0
BBX 16 23 -1 -12
BITMAP
006FFE00
00FFBE00
00902D00
00007800
0000B400
0001E000
0007C009
001F5024
007FF8A0
00BD3F80
00207D00
0007F800
007EB400
01F4F000
0781E000
1F02D000
3D07C000
780B8000
B41F0000
F03D0000
F4BC0000
BFF00000
3F800000
ENDCHAR
STARTCHAR braceleft
ENCODING 123
SWIDTH 243 0
DWIDTH 7 0
BBX 10 28 -1 -4
BITMAP
000010
0002F0
001FE0
003F90
007D00
007800
007400
007400
007800
007800
00B400
00F000
06D000
0F4000
0B4000
038000
038000
038000
0B4000
1E0000
2D0000
780000
780000
BC0000
7F4000
2F8000
0B4000
010000
ENDCHAR
STARTCHAR bar
ENCODING 124
SWIDTH 253 0
DWIDTH 7 0
BBX 7 22 0 -1
BITMAP
0018
007C
00B8
00F4
00F0
01E0
02D0
02C0
03C0
0780
0B40
0B00
0F00
1E00
1E00
2D00
3D00
7C00
7C00
B800
F800
5000
ENDCHAR
STARTCHAR braceright
ENCODING 125
SWIDTH 243 0
DWIDTH 7 0
BBX 10 27 -3 -4
BITMAP
000B40
000FD0
000BF0
0002F0
0000F0
0001E0
0002D0
000780
000B40
000E00
001D00
001D00
000F40
000B80
002E40
007800
00B000
00F000
00E000
00F000
00F000
00F000
02E000
1BD000
3F8000
BD0000
500000
ENDCHAR
STARTCHAR asciitilde
ENCODING 126
SWIDTH 329 0
DWIDTH 9 0
BBX 11 4 -1 8
BITMAP
054004
7FFAB8
BEBFF4
500540
ENDCHAR
STARTCHAR uni00A0
ENCODING 160
SWIDTH 280 0
DWIDTH 8 0
BBX 1 1 0 0
BITMAP
00
ENDCHAR
STARTCHAR exclamdown
ENCODING 161
SWIDTH 249 0
DWIDTH 7 0
BBX 9 22 -1 -1
BITMAP
000600
002F40
003E00
000000
000400
002C00
00B800
00B400
00F400
01F000
02E000
03E000
03D000
07C000
0BC000
0F8000
1F4000
2F4000
2F0000
3E0000
7E0000
640000
ENDCHAR
STARTCHAR cent
ENCODING 162
SWIDTH 322 0
DWIDTH 9 0
BBX 10 21 0 -1
BITMAP
000B00
000A00
001E00
01FAC0
07C1D0
0F47D0
2E0FD0
3C0FC0
780A00
B40000
F00000
F00000
E00000
E00000
B00900
B82800
3FE000
0F4000
0E0000
1D0000
040000
ENDCHAR
STARTCHAR sterling
ENCODING 163
SWIDTH 318 0
DWIDTH 9 0
BBX 12 18 -2 1
BITMAP
0002F8
000F5E
002C0B
00380E
0074BD
00B0F8
00F000
00E000
05D000
0FFF40
07E900
078000
074000
0B0000
1D0000
3DAA80
7FFFC0
150000
ENDCHAR
STARTCHAR currency
ENCODING 164
SWIDTH 347 0
DWIDTH 10 0
BBX 10 10 0 5
BITMAP
180060
1E65E0
0BFF80
074B00
0A0A00
0D0E00
1E6D00
7FFE00
E00B40
400200
ENDCHAR
STARTCHAR yen
ENCODING 165
SWIDTH 326 0
DWIDTH 9 0
BBX 11 18 0 1
BITMAP
010004
0E0078
0E00B4
0F00E0
0B02C0
074740
075E00
03F800
01F000
02D000
2BFD00
6BE800
179400
BFF400
0B0000
0E0000
1E0000
040000
ENDCHAR
STARTCHAR brokenbar
ENCODING 166
SWIDTH 253 0
DWIDTH 7 0
BBX 7 22 0 -1
BITMAP
0018
007C
00B8
00F4
00F0
01E0
02D0
02D0
03C0
0240
0000
0000
0F00
1E00
1E00
2D00
3D00
7C00
7C00
B800
F800
5000
ENDCHAR
STARTCHAR section
ENCODING 167
SWIDTH 297 0
DWIDTH 8 0
BBX 11 22 -1 -1
BITMAP
000690
007874
01E038
03C078
03C0F4
02D000
00F000
002C00
01BF00
0B8780
2E0380
2D0380
2D0B40
1E6D00
07E000
00F000
003C00
782D00
B02D00
B03C00
75B400
0A8000
ENDCHAR
STARTCHAR dieresis
ENCODING 168
SWIDTH 567 0
DWIDTH 16 0
BBX 8 3 6 16
BITMAP
1414
BCBD
A464
ENDCHAR
STARTCHAR copyright
ENCODING 169
SWIDTH 456 0
DWIDTH 13 0
BBX 14 15 0 6
BITMAP
00055000
006EBD00
01E00B40
074292C0
1E0FB1D0
2C2C74E0
387460A0
74B000E0
74E000E0
74E011D0
74B58380
382E0B40
1E002D00
0796F400
006A4000
ENDCHAR
STARTCHAR ordfeminine
ENCODING 170
SWIDTH 373 0
DWIDTH 10 0
BBX 14 15 -2 -1
BITMAP
00054000
002FC000
00B6D000
02D1E000
0780E000
0B41D000
0F02C000
1E03C090
1E1F8280
1FFADA00
0BD1F800
00000000
16AA9000
7FFFF000
69554000
ENDCHAR
STARTCHAR guillemotleft
ENCODING 171
SWIDTH 346 0
DWIDTH 10 0
BBX 11 12 -1 -1
BITMAP
006064
01D1E0
078780
1F0F00
3D3D00
F4B800
B8B800
3C3C00
1D1D00
0E0E00
074740
014100
ENDCHAR
STARTCHAR logicalnot
ENCODING 172
SWIDTH 512 0
DWIDTH 14 0
BBX 14 8 0 4
BITMAP
00154000
7FFFFFE0
FFAAAAE0
400001D0
000002D0
000003C0
00000780
00000500
ENDCHAR
STARTCHAR sfthyphen
ENCODING 173
SWIDTH 353 0
DWIDTH 10 0
BBX 11 3 -1 7
BITMAP
1AAAA4
7FFFF4
654000
ENDCHAR
STARTCHAR registered
ENCODING 174
SWIDTH 456 0
DWIDTH 13 0
BBX 14 15 0 6
BITMAP
00055000
006EBD00
01E00B40
074A92C0
1E3D71D0
2C1C34E0
3818A0A0
743EC0E0
743B00E0
747281D0
74B1C380
3890EB40
1E002D00
0796F400
006A4000
ENDCHAR
STARTCHAR macron
ENCODING 175
SWIDTH 567 0
DWIDTH 16 0
BBX 7 3 6 16
BITMAP
0550
7FFC
AAA4
ENDCHAR
STARTCHAR degree
ENCODING 176
SWIDTH 144 0
DWIDTH 4 0
BBX 5 4 1 15
BITMAP
1A00
3740
7740
1900
ENDCHAR
STARTCHAR twosuperior
ENCODING 178
SWIDTH 268 0
DWIDTH 8 0
BBX 9 14 0 7
BITMAP
006900
02DB40
074740
0B4B40
060F00
001E00
003C00
00B400
02D000
0F4000
3D0000
BFF800
7FFC00
100400
ENDCHAR
STARTCHAR threesuperior
ENCODING 179
SWIDTH 262 0
DWIDTH 7 0
BBX 9 14 0 7
BITMAP
00A900
07EB40
0F4740
0F0740
064F00
002D00
01F400
02BC00
001D00
001D00
782C00
787800
2FE000
054000
ENDCHAR
STARTCHAR acute
ENCODING 180
SWIDTH 567 0
DWIDTH 16 0
BBX 5 4 7 15
BITMAP
0280
1FC0
BE00
5000
ENDCHAR
STARTCHAR mu
ENCODING 181
SWIDTH 453 0
DWIDTH 13 0
BBX 17 16 -4 -6
BITMAP
002D078000
00780B8000
00B40F4000
00F01F4000
01E02F0000
02E02D0180
03D02C0300
03D07D0A00
07FAEE6800
0BFF4BE000
0F40014000
0F00000000
1E00000000
2D00000000
3C00000000
5000000000
ENDCHAR
STARTCHAR paragraph
ENCODING 182
SWIDTH 411 0
DWIDTH 12 0
BBX 13 22 1 -1
BITMAP
00014500
005B9E40
0BFFFF80
2FFFBD00
BFFE3800
FFFD3800
FFFD7400
FFFCB000
FFF8B000
7FF8E000
1BF4D000
00B1D000
00E2C000
00E28000
01D38000
02C74000
03C70000
038B0000
074E0000
0B5D0000
0F2C0000
14100000
ENDCHAR
STARTCHAR periodcentered
ENCODING 183
SWIDTH 168 0
DWIDTH 5 0
BBX 4 3 0 8
BITMAP
1A
BF
78
ENDCHAR
STARTCHAR cedilla
ENCODING 184
SWIDTH 567 0
DWIDTH 16 0
BBX 5 7 7 -4
BITMAP
1800
3800
7900
6BC0
03C0
1B40
A400
ENDCHAR
STARTCHAR onesuperior
ENCODING 185
SWIDTH 150 0
DWIDTH 4 0
BBX 5 14 1 7
BITMAP
0600
1F40
1F00
0E00
1E00
1D00
2C00
3800
3800
7400
B000
F000
F000
5000
ENDCHAR
STARTCHAR ordmasculine
ENCODING 186
SWIDTH 319 0
DWIDTH 9 0
BBX 13 14 -2 -1
BITMAP
00BE0000
02E78000
07C1D140
0BC1D600
0FE1F800
1EBFD000
1D178000
0E0B4000
0F5E0000
07F80000
00400000
1AAA4000
7FFF4000
A5550000
ENDCHAR
STARTCHAR guillemotright
ENCODING 187
SWIDTH 346 0
DWIDTH 10 0
BBX 11 12 -2 -1
BITMAP
090900
0B0B00
038780
02D2D0
01E1E0
00F4F4
01F1F0
03C3C0
0F4B40
2D2D00
747400
404000
ENDCHAR
STARTCHAR onequarter
ENCODING 188
SWIDTH 579 0
DWIDTH 16 0
BBX 17 22 -1 -1
BITMAP
0020000140
01F4001E00
01F0003C00
00F000B400
00E001E000
01D003C000
02C00B4000
02C02D0000
0380780500
0740F02F00
0B42D0BE00
0F0781ED00
0F0F079D00
052D1E2C00
00787D7C00
00F07FFE00
02D029B900
078000B400
0F4000F000
2E0000F000
7C0001F000
5000005000
ENDCHAR
STARTCHAR onehalf
ENCODING 189
SWIDTH 603 0
DWIDTH 17 0
BBX 18 22 -1 -1
BITMAP
0020000140
00F4001F00
01F4003D00
00B000B800
00E001E000
01D003C000
01D00B4000
02C01E0000
03803C1A40
0340B4BBC0
0741E2D2D0
0B4383C3C0
0F4B4283C0
011E000B40
007C001E00
00B4003C00
02E001F000
07C007D000
0F401F0000
2E002EB900
7D002FFE00
5000040500
ENDCHAR
STARTCHAR threequarters
ENCODING 190
SWIDTH 669 0
DWIDTH 19 0
BBX 18 22 0 -1
BITMAP
00A9000060
07EB4002D0
0F47400B80
0F07401F00
064F003D00
002D00B400
01F401E000
02BC03C000
001D0B4050
001D1E07E0
782C3C0FD0
7878B43EC0
2FE1E0B680
0543C2D380
000B4B8740
001E0FFFC0
003C065F80
00B4000F00
02E0001E00
07D0002E00
0F80002E00
0500001400
ENDCHAR
STARTCHAR questiondown
ENCODING 191
SWIDTH 413 0
DWIDTH 12 0
BBX 14 22 -2 -1
BITMAP
00000290
00000BF0
00000BD0
00000000
00000140
00000F40
00001F00
00002E00
00003E00
00007D00
001BF800
00BE4000
02E40000
0B800000
1F000000
3E000000
3D002D00
7C002F00
7C003E00
3E01BD00
1FFFE000
02AA4000
ENDCHAR
STARTCHAR Agrave
ENCODING 192
SWIDTH 552 0
DWIDTH 15 0
BBX 17 33 -3 -7
BITMAP
0000007800
0000007F40
00000007C0
0000000040
0000000000
0000001900
000001FF80
000007D3C0
00000F43C0
00002D0380
0000780780
0000F40B40
0002E00B40
0003D00F00
0007C01F00
000B801E00
000F402E00
001F003D00
002E003D00
003E557C00
01BFFFFF80
2FFEABFF00
25F800B800
02F400F800
03F000F400
07E001F400
0BD001F400
0FD001F400
1F8002F400
3F4002F400
B90001F800
000001F800
0000004000
ENDCHAR
STARTCHAR Aacute
ENCODING 193
SWIDTH 552 0
DWIDTH 15 0
BBX 17 33 -3 -7
BITMAP
00000002C0
0000000BC0
0000007E40
0000006400
0000000000
0000001900
000001FF80
000007D3C0
00000F43C0
00002D0380
0000780780
0000F40B40
0002E00B40
0003D00F00
0007C01F00
000B801E00
000F402E00
001F003D00
002E003D00
003E557C00
01BFFFFF80
2FFEABFF00
25F800B800
02F400F800
03F000F400
07E001F400
0BD001F400
0FD001F400
1F8002F400
3F4002F400
B90001F800
000001F800
0000004000
ENDCHAR
STARTCHAR Acircumflex
ENCODING 194
SWIDTH 552 0
DWIDTH 15 0
BBX 19 33 -3 -7
BITMAP
0000000100
0000000BC0
0000007AE0
000001E0B4
0000000000
0000001900
000001FF80
000007D3C0
00000F43C0
00002D0380
0000780780
0000F40B40
0002E00B40
0003D00F00
0007C01F00
000B801E00
000F402E00
001F003D00
002E003D00
003E557C00
01BFFFFF80
2FFEABFF00
25F800B800
02F400F800
03F000F400
07E001F400
0BD001F400
0FD001F400
1F8002F400
3F4002F400
B90001F800
000001F800
0000004000
ENDCHAR
STARTCHAR Atilde
ENCODING 195
SWIDTH 552 0
DWIDTH 15 0
BBX 20 32 -3 -7
BITMAP
0000005405
000002FFAD
00000296A8
0000000000
0000001900
000001FF80
000007D3C0
00000F43C0
00002D0380
0000780780
0000F40B40
0002E00B40
0003D00F00
0007C01F00
000B801E00
000F402E00
001F003D00
002E003D00
003E557C00
01BFFFFF80
2FFEABFF00
25F800B800
02F400F800
03F000F400
07E001F400
0BD001F400
0FD001F400
1F8002F400
3F4002F400
B90001F800
000001F800
0000004000
ENDCHAR
STARTCHAR Adieresis
ENCODING 196
SWIDTH 552 0
DWIDTH 15 0
BBX 20 32 -3 -7
BITMAP
0000001414
000000BC7D
000000A468
0000000000
0000001900
000001FF80
000007D3C0
00000F43C0
00002D0380
0000780780
0000F40B40
0002E00B40
0003D00F00
0007C01F00
000B801E00
000F402E00
001F003D00
002E003D00
003E557C00
01BFFFFF80
2FFEABFF00
25F800B800
02F400F800
03F000F400
07E001F400
0BD001F400
0FD001F400
1F8002F400
3F4002F400
B90001F800
000001F800
0000004000
ENDCHAR
STARTCHAR Aring
ENCODING 197
SWIDTH 552 0
DWIDTH 15 0
BBX 17 31 -3 -7
BITMAP
0000000640
0000002A80
0000002A80
0000002F00
000001FF80
000007D3C0
00000F43C0
00002D0380
0000780780
0000F40B40
0002E00B40
0003D00F00
0007C01F00
000B801E00
000F402E00
001F003D00
002E003D00
003E557C00
01BFFFFF80
2FFEABFF00
25F800B800
02F400F800
03F000F400
07E001F400
0BD001F400
0FD001F400
1F8002F400
3F4002F400
B90001F800
000001F800
0000004000
ENDCHAR
STARTCHAR AE
ENCODING 198
SWIDTH 869 0
DWIDTH 24 0
BBX 28 28 -3 -7
BITMAP
00000019001690
000001FF81FEB8
000007D3CFD02D
00000F43FE002E
00002D03FC002E
00007807F8003E
0000F40BF000BC
0002E00BF002F8
0003D00FF002E0
0007C01FF00000
000B801FF40000
000F402EF80000
001F003D7EA400
002E003D6FF800
003E557FE5A000
01BFFFFF800000
2FFEABFE000000
25F800BD000000
02F400FC000050
03F000F8000090
07E001FC0001C0
0BD001FC000340
0FD001FE000F00
1F8002FF807C00
3F4002FFFFF400
B90001FEFF8000
000001F8000000
00000040000000
ENDCHAR
STARTCHAR Ccedilla
ENCODING 199
SWIDTH 548 0
DWIDTH 15 0
BBX 16 32 0 -11
BITMAP
00001A80
0001FEF4
000BD07C
002F403D
00BD003D
01F8007D
02F000BD
07E000FC
0BC003F8
1F8002F0
2F400040
3F000000
7E000000
7E000000
BD000000
BD000000
FC000000
FC000000
FC000000
FC000000
BC000240
7D000700
3E001D00
2F81B800
0BFFE000
01FE4000
00B00000
00E40000
01AF0000
000F0000
006D0000
01A00000
ENDCHAR
STARTCHAR Egrave
ENCODING 200
SWIDTH 523 0
DWIDTH 15 0
BBX 16 31 -1 -5
BITMAP
00001E40
00001FD0
000001F4
00000010
00000000
00001690
0001BEBC
000BE01E
002F401F
00BD001F
01F8002E
02F4007D
02F401FC
03F001B4
02F40000
01F80000
00BC0000
002F6400
002FFC00
02F56400
0BC00000
2F000000
7E000000
BD000010
BC000060
BD0000D0
BD000280
7F000B40
3F907D00
0FFFF400
01FF8000
ENDCHAR
STARTCHAR Eacute
ENCODING 201
SWIDTH 523 0
DWIDTH 15 0
BBX 16 31 -1 -5
BITMAP
00000028
000001FC
00000BE0
00000500
00000000
00001690
0001BEBC
000BE01E
002F401F
00BD001F
01F8002E
02F4007D
02F401FC
03F001B4
02F40000
01F80000
00BC0000
002F6400
002FFC00
02F56400
0BC00000
2F000000
7E000000
BD000010
BC000060
BD0000D0
BD000280
7F000B40
3F907D00
0FFFF400
01FF8000
ENDCHAR
STARTCHAR Ecircumflex
ENCODING 202
SWIDTH 523 0
DWIDTH 15 0
BBX 16 31 -1 -5
BITMAP
00000010
000001F8
000007AD
00002D0F
00000000
00001690
0001BEBC
000BE01E
002F401F
00BD001F
01F8002E
02F4007D
02F401FC
03F001B4
02F40000
01F80000
00BC0000
002F6400
002FFC00
02F56400
0BC00000
2F000000
7E000000
BD000010
BC000060
BD0000D0
BD000280
7F000B40
3F907D00
0FFFF400
01FF8000
ENDCHAR
STARTCHAR Edieresis
ENCODING 203
SWIDTH 523 0
DWIDTH 15 0
BBX 17 30 -1 -5
BITMAP
0000050100
00002F1F40
0000291A00
0000000000
0000169000
0001BEBC00
000BE01E00
002F401F00
00BD001F00
01F8002E00
02F4007D00
02F401FC00
03F001B400
02F4000000
01F8000000
00BC000000
002F640000
002FFC0000
02F5640000
0BC0000000
2F00000000
7E00000000
BD00001000
BC00006000
BD0000D000
BD00028000
7F000B4000
3F907D0000
0FFFF40000
01FF800000
ENDCHAR
STARTCHAR Igrave
ENCODING 204
SWIDTH 537 0
DWIDTH 15 0
BBX 17 31 -2 -5
BITMAP
000002E000
000002F800
0000002F00
0000000100
0000000000
0000005400
000002FD00
00001F9E00
00003E1E00
0000BD2E00
0000F82E00
0001F43D00
0001F43D00
0001F07C00
0001F0BC00
0001F0F800
0000F0F400
0000B1F400
000072F000
000003E000
0005ABFE40
01BFFFD500
1FF90B8000
7F400F4000
BD001F0000
F8002D0000
FC003C0000
BD00B40000
3F01E00000
1FE7C00000
02FE000000
ENDCHAR
STARTCHAR Iacute
ENCODING 205
SWIDTH 537 0
DWIDTH 15 0
BBX 17 31 -2 -5
BITMAP
0000000280
0000001F80
000000BD00
0000005000
0000000000
0000005400
000002FD00
00001F9E00
00003E1E00
0000BD2E00
0000F82E00
0001F43D00
0001F43D00
0001F07C00
0001F0BC00
0001F0F800
0000F0F400
0000B1F400
000072F000
000003E000
0005ABFE40
01BFFFD500
1FF90B8000
7F400F4000
BD001F0000
F8002D0000
FC003C0000
BD00B40000
3F01E00000
1FE7C00000
02FE000000
ENDCHAR
STARTCHAR Icircumflex
ENCODING 206
SWIDTH 537 0
DWIDTH 15 0
BBX 19 31 -2 -5
BITMAP
0000000100
0000001FC0
0000007AD0
000002E0B4
0000000000
0000005400
000002FD00
00001F9E00
00003E1E00
0000BD2E00
0000F82E00
0001F43D00
0001F43D00
0001F07C00
0001F0BC00
0001F0F800
0000F0F400
0000B1F400
000072F000
000003E000
0005ABFE40
01BFFFD500
1FF90B8000
7F400F4000
BD001F0000
F8002D0000
FC003C0000
BD00B40000
3F01E00000
1FE7C00000
02FE000000
ENDCHAR
STARTCHAR Idieresis
ENCODING 207
SWIDTH 537 0
DWIDTH 15 0
BBX 19 30 -2 -5
BITMAP
0000005050
000002F1F4
00000291A0
0000000000
0000005400
000002FD00
00001F9E00
00003E1E00
0000BD2E00
0000F82E00
0001F43D00
0001F43D00
0001F07C00
0001F0BC00
0001F0F800
0000F0F400
0000B1F400
000072F000
000003E000
0005ABFE40
01BFFFD500
1FF90B8000
7F400F4000
BD001F0000
F8002D0000
FC003C0000
BD00B40000
3F01E00000
1FE7C00000
02FE000000
ENDCHAR
STARTCHAR Eth
ENCODING 208
SWIDTH 632 0
DWIDTH 18 0
BBX 18 26 -1 -5
BITMAP
0001650000
002FFFD000
00BFAAF800
00F4007E00
0041001F40
001B400F80
002F4007D0
002F0007D0
003F0003E0
003E0003E0
007D0007E0
007D0007E0
2BFFE007E0
BFFFE00BD0
54F8000FC0
01F4001F80
01F0002F40
02E0003F00
03D000BD00
07C000F800
0BC002F000
0F800BD000
1F402F4000
2F01BD0000
2FEFE00000
07FE400000
ENDCHAR
STARTCHAR Ntilde
ENCODING 209
SWIDTH 541 0
DWIDTH 15 0
BBX 19 29 -1 -5
BITMAP
0000150100
0001FFEE00
000195A800
0000000190
002E000BF4
007E001FB8
00BE003E28
00FF007C38
00FF00B874
01EF00B9E0
02DF00FBC0
02CB0AFE00
03CB02F400
078B02E000
0B8B02E000
0B4B42D000
0F0743D000
1F0743C000
2E0747C000
2E074B8000
3D078B8000
7D078F4000
7C038F0000
BC03DF0000
FC03FE0000
FC02FD0000
FC01FC0000
FC00FC0000
B800A40000
ENDCHAR
STARTCHAR Ograve
ENCODING 210
SWIDTH 567 0
DWIDTH 16 0
BBX 15 32 0 -6
BITMAP
00007900
00007F40
000007D0
00000040
00000000
0001B500
0007FFC0
001FE3D0
007D41E0
00F801F0
01F000F4
03E000F4
07C000F4
0B8000F4
1F4000F4
2F0000F4
2E0000F4
3E0001F4
7D0001F0
7D0002F0
BC0003E0
BC0003D0
BC0007C0
BC000B80
BC000F40
BC002F00
7C003D00
7D00B800
2E02F000
1F5BC000
07FE0000
00500000
ENDCHAR
STARTCHAR Oacute
ENCODING 211
SWIDTH 567 0
DWIDTH 16 0
BBX 15 32 0 -6
BITMAP
000001D0
00000BD0
00007E40
00002400
00000000
0001B500
0007FFC0
001FE3D0
007D41E0
00F801F0
01F000F4
03E000F4
07C000F4
0B8000F4
1F4000F4
2F0000F4
2E0000F4
3E0001F4
7D0001F0
7D0002F0
BC0003E0
BC0003D0
BC0007C0
BC000B80
BC000F40
BC002F00
7C003D00
7D00B800
2E02F000
1F5BC000
07FE0000
00500000
ENDCHAR
STARTCHAR Ocircumflex
ENCODING 212
SWIDTH 567 0
DWIDTH 16 0
BBX 15 32 0 -6
BITMAP
00000100
00001FC0
00007AE0
0002E0B4
00000000
0001B500
0007FFC0
001FE3D0
007D41E0
00F801F0
01F000F4
03E000F4
07C000F4
0B8000F4
1F4000F4
2F0000F4
2E0000F4
3E0001F4
7D0001F0
7D0002F0
BC0003E0
BC0003D0
BC0007C0
BC000B80
BC000F40
BC002F00
7C003D00
7D00B800
2E02F000
1F5BC000
07FE0000
00500000
ENDCHAR
STARTCHAR Otilde
ENCODING 213
SWIDTH 567 0
DWIDTH 16 0
BBX 15 31 0 -6
BITMAP
00005404
0007FFB8
000656A0
00000000
0001B500
0007FFC0
001FE3D0
007D41E0
00F801F0
01F000F4
03E000F4
07C000F4
0B8000F4
1F4000F4
2F0000F4
2E0000F4
3E0001F4
7D0001F0
7D0002F0
BC0003E0
BC0003D0
BC0007C0
BC000B80
BC000F40
BC002F00
7C003D00
7D00B800
2E02F000
1F5BC000
07FE0000
00500000
ENDCHAR
STARTCHAR Odieresis
ENCODING 214
SWIDTH 567 0
DWIDTH 16 0
BBX 15 31 0 -6
BITMAP
00005010
0001F5F8
000190A0
00000000
0001B500
0007FFC0
001FE3D0
007D41E0
00F801F0
01F000F4
03E000F4
07C000F4
0B8000F4
1F4000F4
2F0000F4
2E0000F4
3E0001F4
7D0001F0
7D0002F0
BC0003E0
BC0003D0
BC0007C0
BC000B80
BC000F40
BC002F00
7C003D00
7D00B800
2E02F000
1F5BC000
07FE0000
00500000
ENDCHAR
STARTCHAR multiply
ENCODING 215
SWIDTH 281 0
DWIDTH 8 0
BBX 10 11 -1 4
BITMAP
050040
0B42E0
0787C0
03DF00
02FC00
01F400
03E000
0BB000
2D7800
743C00
500400
ENDCHAR
STARTCHAR Oslash
ENCODING 216
SWIDTH 597 0
DWIDTH 17 0
BBX 18 28 -1 -6
BITMAP
0000000010
00002E57D0
0000FFFF80
0003FDBF40
000B903E00
002F00BD00
003D00FE00
00BC02FE00
00F407FE00
01F00BAE00
03E01F2E00
03D03E2E00
07C07C2E00
0BC0F43E00
0F82E03D00
0F83D07D00
0F4B807C00
1F5F40B800
1F6E00F400
1FBC01F000
1FF802E000
1FF007D000
0FE00B8000
0FC01F0000
0FC07D0000
2FE6F40000
7EBF900000
A814000000
ENDCHAR
STARTCHAR Ugrave
ENCODING 217
SWIDTH 574 0
DWIDTH 16 0
BBX 17 30 0 -5
BITMAP
0000790000
00007F4000
000007D000
0000004000
0000000140
002F000FC0
00BE001F80
00FC002F40
01F8003F00
02F4007E00
03F0007D00
03E000BC00
07D000F800
0BC001F400
0F8001F000
0F8002F000
1F4003E000
2F0003D000
2E0007C000
3D000BC000
7D000F8000
7C000F8000
7C002F4000
BC003F4000
B8007F0000
BC00FF0000
BC02EF0000
7E079F0000
3FFE0F4000
1BF4064000
ENDCHAR
STARTCHAR Uacute
ENCODING 218
SWIDTH 574 0
DWIDTH 16 0
BBX 17 30 0 -5
BITMAP
0000002800
000001F800
00000BD000
0000050000
0000000140
002F000FC0
00BE001F80
00FC002F40
01F8003F00
02F4007E00
03F0007D00
03E000BC00
07D000F800
0BC001F400
0F8001F000
0F8002F000
1F4003E000
2F0003D000
2E0007C000
3D000BC000
7D000F8000
7C000F8000
7C002F4000
BC003F4000
B8007F0000
BC00FF0000
BC02EF0000
7E079F0000
3FFE0F4000
1BF4064000
ENDCHAR
STARTCHAR Ucircumflex
ENCODING 219
SWIDTH 574 0
DWIDTH 16 0
BBX 17 31 0 -5
BITMAP
0000004000
000007E000
00001EB400
0000B43C00
0000000000
0000000140
002F000FC0
00BE001F80
00FC002F40
01F8003F00
02F4007E00
03F0007D00
03E000BC00
07D000F800
0BC001F400
0F8001F000
0F8002F000
1F4003E000
2F0003D000
2E0007C000
3D000BC000
7D000F8000
7C000F8000
7C002F4000
BC003F4000
B8007F0000
BC00FF0000
BC02EF0000
7E079F0000
3FFE0F4000
1BF4064000
ENDCHAR
STARTCHAR Udieresis
ENCODING 220
SWIDTH 574 0
DWIDTH 16 0
BBX 17 30 0 -5
BITMAP
0000141400
0000FCBD00
0000A46400
0000000000
0000000140
002F000FC0
00BE001F80
00FC002F40
01F8003F00
02F4007E00
03F0007D00
03E000BC00
07D000F800
0BC001F400
0F8001F000
0F8002F000
1F4003E000
2F0003D000
2E0007C000
3D000BC000
7D000F8000
7C000F8000
7C002F4000
BC003F4000
B8007F0000
BC00FF0000
BC02EF0000
7E079F0000
3FFE0F4000
1BF4064000
ENDCHAR
STARTCHAR Yacute
ENCODING 221
SWIDTH 532 0
DWIDTH 15 0
BBX 16 30 0 -5
BITMAP
000001D0
000007E0
00002F40
00002400
00140005
00FC003E
01F8007D
02F400BD
03F000BC
07E000F8
07D001F4
0BC001F0
0F8002E0
1F4003E0
1F0007D0
2E000BC0
2E000F80
3D002F80
3D007F40
3D00FB00
3F47DE00
1FFE5E00
06E42D00
00003C00
00007800
0000F000
2802E000
BF5FC000
BFFE0000
2FE40000
ENDCHAR
STARTCHAR Thorn
ENCODING 222
SWIDTH 569 0
DWIDTH 16 0
BBX 16 26 -1 -5
BITMAP
00010000
001F4000
002F0000
003E0000
003D0000
007DAA40
00BFEFF4
02F900BD
0FF4003E
1FF0002F
0AF0002F
02E0002F
03D0003F
07C0003E
0BC000BD
0B8000F8
0F4002F0
1F400BD0
1F007F40
2F06F800
3FFF8000
7E500000
7D000000
BD000000
FC000000
F8000000
ENDCHAR
STARTCHAR germandbls
ENCODING 223
SWIDTH 495 0
DWIDTH 14 0
BBX 17 32 -4 -13
BITMAP
0000015000
00002FF400
0000BD3C00
0001F42D00
0002E03D00
0003D0B800
0007C0F400
000B81E000
000F43C000
001F038000
002E02D000
003D01F000
003C00B800
0078007D00
1EB4002F00
06F0010F40
01F80E0B40
01EE1F4A00
02C78FF800
03C2D6E000
0781E00000
0B40F00000
0B00F00000
0F00F00000
1E01E00000
2D02D00000
2D07C00000
3C0B800000
7C2F000000
7EFD000000
7FF4000000
2F80000000
ENDCHAR
STARTCHAR agrave
ENCODING 224
SWIDTH 435 0
DWIDTH 12 0
BBX 16 18 -1 -1
BITMAP
00790000
007F4000
0007D000
00004000
00000000
00050000
007FC000
01F7C000
03C2F000
0B41E000
1F01E005
2D02D01C
3D03C034
7C07C0A0
7C1F8280
7FF6DB00
3FD1FC00
05005000
ENDCHAR
STARTCHAR aacute
ENCODING 225
SWIDTH 435 0
DWIDTH 12 0
BBX 16 18 -1 -1
BITMAP
0000A000
0007E000
002F8000
00140000
00000000
00050000
007FC000
01F7C000
03C2F000
0B41E000
1F01E005
2D02D01C
3D03C034
7C07C0A0
7C1F8280
7FF6DB00
3FD1FC00
05005000
ENDCHAR
STARTCHAR acircumflex
ENCODING 226
SWIDTH 435 0
DWIDTH 12 0
BBX 16 18 -1 -1
BITMAP
00004000
000BD000
002DF000
00B47800
00000000
00050000
007FC000
01F7C000
03C2F000
0B41E000
1F01E005
2D02D01C
3D03C034
7C07C0A0
7C1F8280
7FF6DB00
3FD1FC00
05005000
ENDCHAR
STARTCHAR atilde
ENCODING 227
SWIDTH 435 0
DWIDTH 12 0
BBX 16 17 -1 -1
BITMAP
00540100
02FFEE00
0295A800
00000000
00050000
007FC000
01F7C000
03C2F000
0B41E000
1F01E005
2D02D01C
3D03C034
7C07C0A0
7C1F8280
7FF6DB00
3FD1FC00
05005000
ENDCHAR
STARTCHAR adieresis
ENCODING 228
SWIDTH 435 0
DWIDTH 12 0
BBX 16 17 -1 -1
BITMAP
00140400
007D3E00
00682900
00000000
00050000
007FC000
01F7C000
03C2F000
0B41E000
1F01E005
2D02D01C
3D03C034
7C07C0A0
7C1F8280
7FF6DB00
3FD1FC00
05005000
ENDCHAR
STARTCHAR aring
ENCODING 229
SWIDTH 435 0
DWIDTH 12 0
BBX 16 17 -1 -1
BITMAP
00064000
0019C000
002AC000
000A0000
00050000
007FC000
01F7C000
03C2F000
0B41E000
1F01E005
2D02D01C
3D03C034
7C07C0A0
7C1F8280
7FF6DB00
3FD1FC00
05005000
ENDCHAR
STARTCHAR ae
ENCODING 230
SWIDTH 594 0
DWIDTH 17 0
BBX 20 13 -1 -1
BITMAP
0005405400
007FC7FC00
01F7DE7D00
03C2F83C00
0B41F4B400
1F02F2E001
2D03EB4009
3D03F80028
7C07E000A0
7C1FE00780
7FF9F42E00
3FD0BFF400
05001A4000
ENDCHAR
STARTCHAR ccedilla
ENCODING 231
SWIDTH 363 0
DWIDTH 10 0
BBX 14 19 -1 -7
BITMAP
00150000
01FF8000
07E3C000
0F8B8000
1F0B4000
2D000050
3C0001C0
7C000740
7C001D00
3C007400
2E42D000
0FFF4000
02E40000
03800000
07F80000
007D0000
003C0000
06E00000
05000000
ENDCHAR
STARTCHAR egrave
ENCODING 232
SWIDTH 372 0
DWIDTH 10 0
BBX 13 18 0 -1
BITMAP
01E00000
01FD0000
002F0000
00010000
00000000
00140000
01FF0000
0B9F0000
1E1E0000
3C2D0000
B8B40040
FBD00340
FE000D00
F4003800
F401E000
BD1B8000
3FF90000
06900000
ENDCHAR
STARTCHAR eacute
ENCODING 233
SWIDTH 372 0
DWIDTH 10 0
BBX 13 18 0 -1
BITMAP
00074000
001F8000
00BD0000
00900000
00000000
00140000
01FF0000
0B9F0000
1E1E0000
3C2D0000
B8B40040
FBD00340
FE000D00
F4003800
F401E000
BD1B8000
3FF90000
06900000
ENDCHAR
STARTCHAR ecircumflex
ENCODING 234
SWIDTH 372 0
DWIDTH 10 0
BBX 13 18 0 -1
BITMAP
00040000
002F4000
01F78000
0782D000
00000000
00140000
01FF0000
0B9F0000
1E1E0000
3C2D0000
B8B40040
FBD00340
FE000D00
F4003800
F401E000
BD1B8000
3FF90000
06900000
ENDCHAR
STARTCHAR edieresis
ENCODING 235
SWIDTH 372 0
DWIDTH 10 0
BBX 13 17 0 -1
BITMAP
00405000
07E3F000
06829000
00000000
00140000
01FF0000
0B9F0000
1E1E0000
3C2D0000
B8B40040
FBD00340
FE000D00
F4003800
F401E000
BD1B8000
3FF90000
06900000
ENDCHAR
STARTCHAR igrave
ENCODING 236
SWIDTH 274 0
DWIDTH 8 0
BBX 10 18 0 -1
BITMAP
780000
7F4000
07D000
004000
000000
000000
064000
1F4000
2F0000
2E0000
3D0020
7C00D0
780280
740A00
742C00
79F000
2F8000
050000
ENDCHAR
STARTCHAR iacute
ENCODING 237
SWIDTH 274 0
DWIDTH 8 0
BBX 10 18 0 -1
BITMAP
000B00
007F00
01F800
018000
000000
000000
064000
1F4000
2F0000
2E0000
3D0020
7C00D0
780280
740A00
742C00
79F000
2F8000
050000
ENDCHAR
STARTCHAR icircumflex
ENCODING 238
SWIDTH 274 0
DWIDTH 8 0
BBX 10 18 0 -1
BITMAP
004000
02F400
1F7800
782E00
000000
000000
064000
1F4000
2F0000
2E0000
3D0020
7C00D0
780280
740A00
742C00
79F000
2F8000
050000
ENDCHAR
STARTCHAR idieresis
ENCODING 239
SWIDTH 274 0
DWIDTH 8 0
BBX 10 17 0 -1
BITMAP
040500
7E2F00
682900
000000
000000
064000
1F4000
2F0000
2E0000
3D0020
7C00D0
780280
740A00
742C00
79F000
2F8000
050000
ENDCHAR
STARTCHAR eth
ENCODING 240
SWIDTH 393 0
DWIDTH 11 0
BBX 14 20 0 -1
BITMAP
00040000
000D0000
000A0000
0007AA00
00AFFD00
02FB8000
01438000
0003C000
06FBC000
0F9FC000
2E0B8060
7D0B82C0
BE0B9E00
FB9BF400
E2FF8000
E06E0000
E02D0000
B4B80000
7FE00000
16400000
ENDCHAR
STARTCHAR ntilde
ENCODING 241
SWIDTH 461 0
DWIDTH 13 0
BBX 16 17 -1 -1
BITMAP
00150100
01FFEF00
0195A900
00000000
00000000
0142E000
07DFF800
07F9F800
0BE0B800
0FC0F402
0F40F40A
1E01F01C
2E02E074
3D03D1E0
3C03D780
7802FE00
5000A400
ENDCHAR
STARTCHAR ograve
ENCODING 242
SWIDTH 393 0
DWIDTH 11 0
BBX 14 18 0 -1
BITMAP
01E00000
01FD0000
002F0000
00010000
00000000
00000000
06F80000
0F9E0000
2E0B0060
7D0B42C0
BE0B5E00
FB9BF400
E2FF4000
E06E0000
E02D0000
B4B80000
7FE00000
16400000
ENDCHAR
STARTCHAR oacute
ENCODING 243
SWIDTH 393 0
DWIDTH 11 0
BBX 14 18 0 -1
BITMAP
00074000
001F8000
00BD0000
00900000
00000000
00000000
06F80000
0F9E0000
2E0B0060
7D0B42C0
BE0B5E00
FB9BF400
E2FF4000
E06E0000
E02D0000
B4B80000
7FE00000
16400000
ENDCHAR
STARTCHAR ocircumflex
ENCODING 244
SWIDTH 393 0
DWIDTH 11 0
BBX 14 18 0 -1
BITMAP
00040000
00BD0000
02DF0000
1E078000
00000000
00000000
06F80000
0F9E0000
2E0B0060
7D0B42C0
BE0B5E00
FB9BF400
E2FF4000
E06E0000
E02D0000
B4B80000
7FE00000
16400000
ENDCHAR
STARTCHAR otilde
ENCODING 245
SWIDTH 393 0
DWIDTH 11 0
BBX 14 17 0 -1
BITMAP
01501000
1FFEE000
195A8000
00000000
00000000
06F80000
0F9E0000
2E0B0060
7D0B42C0
BE0B5E00
FB9BF400
E2FF4000
E06E0000
E02D0000
B4B80000
7FE00000
16400000
ENDCHAR
STARTCHAR odieresis
ENCODING 246
SWIDTH 393 0
DWIDTH 11 0
BBX 14 17 0 -1
BITMAP
01404000
0BD7E000
0A468000
00000000
00000000
06F80000
0F9E0000
2E0B0060
7D0B42C0
BE0B5E00
FB9BF400
E2FF4000
E06E0000
E02D0000
B4B80000
7FE00000
16400000
ENDCHAR
STARTCHAR divide
ENCODING 247
SWIDTH 350 0
DWIDTH 10 0
BBX 10 10 0 5
BITMAP
001400
00BC00
006400
000000
BFFFE0
FFAA90
400000
019000
07D000
014000
ENDCHAR
STARTCHAR oslash
ENCODING 248
SWIDTH 406 0
DWIDTH 11 0
BBX 16 14 -2 -2
BITMAP
00001F00
002FBD00
00B9F400
01F07402
03E0781D
07F079B4
0BB9BF80
0B2FF900
0B01F000
0B41E000
0787C000
0FFF4000
2E640000
79000000
ENDCHAR
STARTCHAR ugrave
ENCODING 249
SWIDTH 468 0
DWIDTH 13 0
BBX 16 17 0 -1
BITMAP
01E40000
01FD0000
001F4000
00010000
00000000
05006000
1F01F000
3E02F000
7D03E000
7C07D009
B80BC01C
F40B8034
F40B40D0
F41F4280
B97BDE00
7FE2F800
05404000
ENDCHAR
STARTCHAR uacute
ENCODING 250
SWIDTH 468 0
DWIDTH 13 0
BBX 16 17 0 -1
BITMAP
0002C000
000BC000
007E4000
00640000
00000000
05006000
1F01F000
3E02F000
7D03E000
7C07D009
B80BC01C
F40B8034
F40B40D0
F41F4280
B97BDE00
7FE2F800
05404000
ENDCHAR
STARTCHAR ucircumflex
ENCODING 251
SWIDTH 468 0
DWIDTH 13 0
BBX 16 18 0 -1
BITMAP
00010000
001F8000
00BAD000
02D1F000
00000000
00000000
05006000
1F01F000
3E02F000
7D03E000
7C07D009
B80BC01C
F40B8034
F40B40D0
F41F4280
B97BDE00
7FE2F800
05404000
ENDCHAR
STARTCHAR udieresis
ENCODING 252
SWIDTH 468 0
DWIDTH 13 0
BBX 16 17 0 -1
BITMAP
00501000
01F4F800
0190A000
00000000
00000000
05006000
1F01F000
3E02F000
7D03E000
7C07D009
B80BC01C
F40B8034
F40B40D0
F41F4280
B97BDE00
7FE2F800
05404000
ENDCHAR
STARTCHAR yacute
ENCODING 253
SWIDTH 406 0
DWIDTH 11 0
BBX 11 28 -1 -12
BITMAP
000028
0001F8
000BD0
000900
000000
064068
0F80BC
0F40BC
1F00B8
2E00F4
3D01F0
3C03E0
7C0BD0
7C1FC0
7D7BC0
3FF780
0A8740
000B40
000F00
001E00
002E00
002D00
003D00
007C00
00B800
00F800
00F400
006000
ENDCHAR
STARTCHAR thorn
ENCODING 254
SWIDTH 451 0
DWIDTH 13 0
BBX 18 31 -3 -12
BITMAP
0007E00000
0007D00000
0007D00000
000BC00000
000B800000
000F400000
001F000000
001E000000
002D1A0000
003DBF8000
007E978000
007E03C000
00BC078010
00F40B8090
00E00F0280
01E02E0B00
02FE7C2D00
03FFF9F400
03FFFF8000
079A550000
0B40000000
0F40000000
0F00000000
1E00000000
2E00000000
3D00000000
3D00000000
7C00000000
BC00000000
F800000000
6400000000
ENDCHAR
STARTCHAR ydieresis
ENCODING 255
SWIDTH 406 0
DWIDTH 11 0
BBX 11 28 -1 -12
BITMAP
001014
01F8FC
01A0A4
000000
000000
064068
0F80BC
0F40BC
1F00B8
2E00F4
3D01F0
3C03E0
7C0BD0
7C1FC0
7D7BC0
3FF780
0A8740
000B40
000F00
001E00
002E00
002D00
003D00
007C00
00B800
00F800
00F400
006000
ENDCHAR
STARTCHAR dotlessi
ENCODING 305
SWIDTH 274 0
DWIDTH 8 0
BBX 10 12 0 -1
BITMAP
064000
1F4000
2F0000
2E0000
3D0020
7C00D0
780280
740A00
742C00
79F000
2F8000
050000
ENDCHAR
STARTCHAR Lslash
ENCODING 321
SWIDTH 492 0
DWIDTH 14 0
BBX 18 27 -3 -6
BITMAP
0000000640
0000002FE0
000000BFF0
000002F5F0
000003E1E0
000007C3D0
00000BCB80
00000FAF00
00000FFD00
00406FE000
00FFFF4000
001ABE0000
00003D0000
00007D1000
0001BFF000
002FFF9000
007EF40000
0051F00000
0002E00000
0003C00000
000B800000
1BFF000000
7FFF400000
B8BFE40A00
BFD2FFFD00
19006FF800
0000019000
ENDCHAR
STARTCHAR lslash
ENCODING 322
SWIDTH 218 0
DWIDTH 6 0
BBX 10 21 -2 -1
BITMAP
000100
002F40
002F40
002F00
003E00
003D00
007D00
00BC00
00BEA0
1AFFE0
BFF900
A6F000
02E000
03D000
07C000
07C000
0B8000
0F4000
0F0000
1F0000
050000
ENDCHAR
STARTCHAR OE
ENCODING 338
SWIDTH 918 0
DWIDTH 26 0
BBX 26 27 0 -6
BITMAP
0001B500006900
0007FFC01BEBC0
001FE3D0BE01E0
007D41F2F400F0
00F801FBE001F0
01F000FFC002F0
03E000FF8003E0
07C000FF401FC0
0B8000FF401B40
1F4000FF400000
2F0000FF800000
2E0000FFD00000
3E0001F6F64000
7D0001F6FFC000
7D0002FF964000
BC0003FD000000
BC0003F4000000
BC0007E0000000
BC000BD0000100
BC000FD0000600
BC002FD0000D00
7C003FE0002C00
7D00BFF000B400
2E02F2FD06E000
1F5BC0BFFF4000
07FE001BF90000
00500000000000
ENDCHAR
STARTCHAR oe
ENCODING 339
SWIDTH 583 0
DWIDTH 16 0
BBX 19 13 0 -1
BITMAP
0000015000
06F81FF000
0F9E79F400
2E0BF0F000
7E0BD2D000
BF0BCB8004
FBEBEE0024
E2FFE400A0
E02F800280
E02F800A00
B4BFD0B800
7FE2FFD000
1540690000
ENDCHAR
STARTCHAR Scaron
ENCODING 352
SWIDTH 474 0
DWIDTH 13 0
BBX 18 31 -2 -6
BITMAP
00000782D0
000002EF40
000000F800
0000000000
00006A9000
0002FEB800
000FD03D00
002F402E00
007D002E00
00B8002E00
00F8003E00
00F800BC00
00BC005000
007E000000
003F400000
001FD00000
0007F40000
0002FC0000
0000BD0000
00007E0000
00002F0000
00001F0000
00001F0000
1F001E0000
3E001E0000
7E002D0000
3F00780000
2F40F40000
1FEBD00000
07FF400000
0054000000
ENDCHAR
STARTCHAR scaron
ENCODING 353
SWIDTH 351 0
DWIDTH 10 0
BBX 10 19 0 -1
BITMAP
07C2E0
01EB40
00FD00
000000
000000
001000
01F400
07F000
0BE000
0BE000
0DF000
28B400
607C00
403D00
042E00
2C1E00
7E2C00
2FF400
0B8000
ENDCHAR
STARTCHAR Ydieresis
ENCODING 376
SWIDTH 532 0
DWIDTH 15 0
BBX 16 30 0 -5
BITMAP
00005010
0001F5F8
000190A0
00000000
00140005
00FC003E
01F8007D
02F400BD
03F000BC
07E000F8
07D001F4
0BC001F0
0F8002E0
1F4003E0
1F0007D0
2E000BC0
2E000F80
3D002F80
3D007F40
3D00FB00
3F47DE00
1FFE5E00
06E42D00
00003C00
00007800
0000F000
2802E000
BF5FC000
BFFE0000
2FE40000
ENDCHAR
STARTCHAR Zcaron
ENCODING 381
SWIDTH 455 0
DWIDTH 13 0
BBX 18 30 -3 -5
BITMAP
00000782D0
000002EF40
000001F800
0000000000
0000555400
000FFFFF80
002FFFAF80
0029400B80
0000000F80
0000002F00
0000007E00
000000FC00
000002F400
000007E000
00001F8000
00003F0000
0000BC0000
0002F40000
0007D00000
001F800000
003E000000
00BC000000
01F4000000
03D0000000
0B80000000
1F00000000
2E05550000
7EFFFFD000
3FFFFF8000
2A555A0000
ENDCHAR
STARTCHAR zcaron
ENCODING 382
SWIDTH 349 0
DWIDTH 10 0
BBX 16 29 -4 -12
BITMAP
0002D1E0
0001FB80
0000BD00
00000000
00000000
00000000
006FFF00
00BFAF00
00A41D00
00003C00
0000B400
0001F000
0003D009
000F9428
003FF8A0
007D2F80
00247D00
0006F800
002E7800
01F4B400
07D0F000
0F42E000
2D03D000
3C0B8000
780F4000
B42E0000
B8BC0000
7FF40000
2FD00000
ENDCHAR
STARTCHAR circumflex
ENCODING 710
SWIDTH 567 0
DWIDTH 16 0
BBX 8 4 6 16
BITMAP
0040
07E0
1EB4
B43D
ENDCHAR
STARTCHAR caron
ENCODING 711
SWIDTH 567 0
DWIDTH 16 0
BBX 7 3 6 16
BITMAP
B478
3EE0
2F40
ENDCHAR
STARTCHAR breve
ENCODING 728
SWIDTH 567 0
DWIDTH 16 0
BBX 7 4 6 15
BITMAP
9018
F03C
BEF4
2F80
ENDCHAR
STARTCHAR dotaccent
ENCODING 729
SWIDTH 567 0
DWIDTH 16 0
BBX 3 3 8 16
BITMAP
14
BC
A4
ENDCHAR
STARTCHAR ring
ENCODING 730
SWIDTH 567 0
DWIDTH 16 0
BBX 5 4 7 15
BITMAP
1A00
3740
7740
1900
ENDCHAR
STARTCHAR ogonek
ENCODING 731
SWIDTH 567 0
DWIDTH 16 0
BBX 7 4 6 -3
BITMAP
3800
B404
B9B8
7F90
ENDCHAR
STARTCHAR tilde
ENCODING 732
SWIDTH 567 0
DWIDTH 16 0
BBX 9 3 5 16
BITMAP
054040
7FFB80
656A00
ENDCHAR
STARTCHAR hungarumlaut
ENCODING 733
SWIDTH 567 0
DWIDTH 16 0
BBX 9 4 5 15
BITMAP
0782C0
1F8BC0
BD7E40
906400
ENDCHAR
STARTCHAR endash
ENCODING 8211
SWIDTH 353 0
DWIDTH 10 0
BBX 11 3 -1 7
BITMAP
1AAAA4
7FFFF4
654000
ENDCHAR
STARTCHAR emdash
ENCODING 8212
SWIDTH 508 0
DWIDTH 14 0
BBX 15 3 -1 7
BITMAP
2ABFFEA4
7FFFFFF8
15545550
ENDCHAR
STARTCHAR quoteleft
ENCODING 8216
SWIDTH 155 0
DWIDTH 4 0
BBX 4 6 1 13
BITMAP
09
28
74
BD
BD
B8
ENDCHAR
STARTCHAR quoteright
ENCODING 8217
SWIDTH 154 0
DWIDTH 4 0
BBX 4 6 1 13
BITMAP
1E
3F
7F
1E
1C
34
ENDCHAR
STARTCHAR quotesinglbase
ENCODING 8218
SWIDTH 188 0
DWIDTH 5 0
BBX 4 7 -1 -4
BITMAP
28
FD
FD
6C
34
A0
40
ENDCHAR
STARTCHAR quotedblleft
ENCODING 8220
SWIDTH 289 0
DWIDTH 8 0
BBX 8 6 1 13
BITMAP
0908
2834
7470
BDFC
BDFD
B8B8
ENDCHAR
STARTCHAR quotedblright
ENCODING 8221
SWIDTH 288 0
DWIDTH 8 0
BBX 8 6 1 13
BITMAP
2E2E
7F7E
3F7E
0E1D
1C28
2060
ENDCHAR
STARTCHAR quotedblbase
ENCODING 8222
SWIDTH 323 0
DWIDTH 9 0
BBX 7 7 -1 -4
BITMAP
2868
FDFC
FDFC
6C78
3470
A090
4040
ENDCHAR
STARTCHAR bullet
ENCODING 8226
SWIDTH 180 0
DWIDTH 5 0
BBX 6 7 -1 4
BITMAP
0B80
2FD0
3FD0
7FC0
7F80
2F00
0400
ENDCHAR
STARTCHAR ellipsis
ENCODING 8230
SWIDTH 614 0
DWIDTH 17 0
BBX 15 3 -1 -1
BITMAP
6E07D0BC
BE0FD2F8
640A4190
ENDCHAR
STARTCHAR perthousand
ENCODING 8240
SWIDTH 851 0
DWIDTH 24 0
BBX 23 22 0 -1
BITMAP
001000060000
02FD001E0000
0B9B007C0000
0F0740F40000
2D0742D00000
2C0B47800000
3C0F0F000000
2C1E2D000000
2D7C78000000
1FF4F0000000
0142D0000000
000781400140
000F0FE01FE0
002D3D787D74
0078B43CB438
01F0F03CE038
02D1E039D078
0B81D079D0B4
1F01D0B1D0F0
3D00E6E1E6D0
BC00BF80BF80
500015001400
ENDCHAR
STARTCHAR guilsinglleft
ENCODING 8249
SWIDTH 202 0
DWIDTH 6 0
BBX 6 12 -1 -1
BITMAP
0060
01D0
0780
1F00
3D00
F400
B400
3C00
2D00
0E00
0740
0100
ENDCHAR
STARTCHAR guilsinglright
ENCODING 8250
SWIDTH 202 0
DWIDTH 6 0
BBX 7 12 -2 -1
BITMAP
0900
0B00
0380
02D0
01E0
00F4
01F0
03C0
0F40
2D00
7400
4000
ENDCHAR
STARTCHAR fraction
ENCODING 8260
SWIDTH 600 0
DWIDTH 17 0
BBX 16 22 1 -1
BITMAP
00000006
0000002D
00000078
000001F0
000003D0
00000B40
00001E00
00003C00
0000B400
0001E000
0003C000
000B4000
001E0000
003C0000
00B40000
01E00000
03C00000
0B400000
1E000000
7D000000
B8000000
50000000
ENDCHAR
STARTCHAR Euro
ENCODING 8364
SWIDTH 334 0
DWIDTH 9 0
BBX 12 17 -1 2
BITMAP
000050
0007F8
002E1E
00780D
00F000
02E000
03C000
2FFE80
6F9540
1F9500
FFFE00
5E0000
1D0000
1D0040
0E01D0
074740
01F900
ENDCHAR
STARTCHAR minus
ENCODING 8722
SWIDTH 353 0
DWIDTH 10 0
BBX 11 3 -1 7
BITMAP
1AAAA4
7FFFF4
654000
ENDCHAR
STARTCHAR fi
ENCODING 64257
SWIDTH 549 0
DWIDTH 15 0
BBX 21 33 -3 -13
BITMAP
000150000000
0007E0000000
0003E0028000
0003E00B8000
0003D00B4000
0007D0000000
0007C0000000
000B80000000
000F40000000
000F00290000
001E007C0000
002D00B80000
003D6FF40000
007F95F00140
02F901E00740
03F002D00E00
03E002D03800
02F802C1E000
02EE02EB8000
03CB40BE0000
0783C0140000
0B42D0000000
0B01E0000000
0F01E0000000
1E01E0000000
2D02E0000000
2D03D0000000
3C0780000000
780F40000000
783E00000000
BEFC00000000
BFE000000000
3F8000000000
ENDCHAR
STARTCHAR fl
ENCODING 64258
SWIDTH 516 0
DWIDTH 14 0
BBX 18 33 -3 -13
BITMAP
0001500000
0007E007E0
0003E007D0
0003E007D0
0003D00BC0
0007D00B80
0007C00F80
000B801F40
000F401F00
000F002E00
001E003D00
002D007D00
003D6FFC00
007F94B800
02F900F400
03F000F400
03E001F000
02F802E000
02EE03D000
03CB43D000
0783C14000
0B42D00000
0B01E00000
0F01E00000
1E01E00000
2D02E00000
2D03D00000
3C07800000
780F400000
783E000000
BEFC000000
BFE0000000
3F80000000
ENDCHAR
STARTCHAR .notdef
ENCODING -1
SWIDTH 280 0
DWIDTH 8 0
BBX 1 1 0 0
BITMAP
00
ENDCHAR
ENDFONT
